<?xml version="1.0" encoding="UTF-8"?>
<svg width="24px" height="24px" viewBox="0 0 24 24" version="1.1" xmlns="http://www.w3.org/2000/svg" xmlns:xlink="http://www.w3.org/1999/xlink">
    <!-- Generator: Sketch 47.1 (45422) - http://www.bohemiancoding.com/sketch -->
    <title>Instagram</title>
    <desc>Created with Sketch.</desc>
    <defs></defs>
    <g id="Welcome" stroke="none" stroke-width="1" fill="none" fill-rule="evenodd">
        <g id="Desktop-Copy" transform="translate(-870.000000, -3084.000000)" fill-rule="nonzero" fill="#000000">
            <g id="Instagram" transform="translate(870.000000, 3084.000000)">
                <g id="Instagram_w_circle">
                    <path d="M16.197576,7.981176 C15.9954316,7.45762968 15.5813349,7.04396885 15.057576,6.842376 C14.7009417,6.7102866 14.3242593,6.64047047 13.943976,6.635976 C13.311576,6.607176 13.121976,6.599976 11.519976,6.599976 C9.917976,6.599976 9.728376,6.607176 9.095976,6.635976 C8.71528892,6.64033312 8.33818902,6.7101514 7.981176,6.842376 C7.45762968,7.04452036 7.04396885,7.45861708 6.842376,7.982376 C6.7102866,8.33901028 6.64047047,8.71569266 6.635976,9.095976 C6.607176,9.728376 6.599976,9.917976 6.599976,11.519976 C6.599976,13.121976 6.607176,13.311576 6.635976,13.943976 C6.64033312,14.3246631 6.7101514,14.701763 6.842376,15.058776 C7.04452036,15.5823223 7.45861708,15.9959831 7.982376,16.197576 C8.33901028,16.3296654 8.71569266,16.3994815 9.095976,16.403976 C9.728376,16.432776 9.917976,16.439976 11.519976,16.439976 C13.121976,16.439976 13.311576,16.432776 13.943976,16.403976 C14.3246631,16.3996189 14.701763,16.3298006 15.058776,16.197576 C15.5823223,15.9954316 15.9959831,15.5813349 16.197576,15.057576 C16.3296654,14.7009417 16.3994815,14.3242593 16.403976,13.943976 C16.432776,13.311576 16.439976,13.121976 16.439976,11.519976 C16.439976,9.917976 16.432776,9.728376 16.403976,9.095976 C16.3996189,8.71528892 16.3298006,8.33818902 16.197576,7.981176 L16.197576,7.981176 Z M11.519976,14.601576 C10.2735851,14.601576 9.14992196,13.8507683 8.67294883,12.6992533 C8.1959757,11.5477383 8.45962432,10.2222872 9.34095574,9.34095574 C10.2222872,8.45962432 11.5477383,8.1959757 12.6992533,8.67294883 C13.8507683,9.14992196 14.601576,10.2735851 14.601576,11.519976 C14.601576,13.2218967 13.2218967,14.601576 11.519976,14.601576 L11.519976,14.601576 Z M14.722776,9.037176 C14.325131,9.037176 14.002776,8.71482102 14.002776,8.317176 C14.002776,7.91953098 14.325131,7.597176 14.722776,7.597176 C15.120421,7.597176 15.442776,7.91953098 15.442776,8.317176 C15.442776,8.71482102 15.120421,9.037176 14.722776,9.037176 Z" id="Shape"></path>
                    <circle id="Oval" cx="11.519976" cy="11.519976" r="2.000028"></circle>
                    <path d="M11.519976,-2.4e-05 C5.15765568,-2.4e-05 -2.4e-05,5.15765568 -2.4e-05,11.519976 C-2.4e-05,17.8822963 5.15765568,23.039976 11.519976,23.039976 C17.8822963,23.039976 23.039976,17.8822963 23.039976,11.519976 C23.039976,8.46468204 21.8262652,5.53452496 19.6658461,3.37410588 C17.505427,1.2136868 14.57527,-2.4e-05 11.519976,-2.4e-05 Z M17.483976,13.994376 C17.4736812,14.4918878 17.3791425,14.9840568 17.204376,15.449976 C16.892756,16.2557593 16.2557593,16.892756 15.449976,17.204376 C14.9840568,17.3791425 14.4918878,17.4736812 13.994376,17.483976 C13.353576,17.512776 13.149576,17.519976 11.519976,17.519976 C9.890376,17.519976 9.686376,17.512776 9.045576,17.483976 C8.54806418,17.4736812 8.05589516,17.3791425 7.589976,17.204376 C6.78419273,16.892756 6.14719596,16.2557593 5.835576,15.449976 C5.66080949,14.9840568 5.56627084,14.4918878 5.555976,13.994376 C5.527176,13.353576 5.519976,13.149576 5.519976,11.519976 C5.519976,9.890376 5.527176,9.686376 5.555976,9.045576 C5.56627084,8.54806418 5.66080949,8.05589516 5.835576,7.589976 C6.14719596,6.78419273 6.78419273,6.14719596 7.589976,5.835576 C8.05589516,5.66080949 8.54806418,5.56627084 9.045576,5.555976 C9.686376,5.527176 9.890376,5.519976 11.519976,5.519976 C13.149576,5.519976 13.353576,5.527176 13.994376,5.555976 C14.4918878,5.56627084 14.9840568,5.66080949 15.449976,5.835576 C16.2557593,6.14719596 16.892756,6.78419273 17.204376,7.589976 C17.3791425,8.05589516 17.4736812,8.54806418 17.483976,9.045576 C17.512776,9.686376 17.519976,9.890376 17.519976,11.519976 C17.519976,13.149576 17.512776,13.353576 17.483976,13.994376 Z" id="Shape"></path>
                </g>
            </g>
        </g>
    </g>
</svg>