<?xml version="1.0" encoding="UTF-8"?>
<svg width="24px" height="24px" viewBox="0 0 24 24" version="1.1" xmlns="http://www.w3.org/2000/svg" xmlns:xlink="http://www.w3.org/1999/xlink">
    <!-- Generator: Sketch 47.1 (45422) - http://www.bohemiancoding.com/sketch -->
    <title>Medium</title>
    <desc>Created with Sketch.</desc>
    <defs></defs>
    <g id="Welcome" stroke="none" stroke-width="1" fill="none" fill-rule="evenodd">
        <g id="Desktop-Copy" transform="translate(-862.000000, -3231.000000)" fill-rule="nonzero" fill="#000000">
            <g id="Medium" transform="translate(862.000000, 3231.000000)">
                <g id="Medium_w_x2F__circle">
                    <path d="M12,0.48 C5.6376,0.48 0.48,5.6376 0.48,12 C0.48,18.3624 5.6376,23.52 12,23.52 C18.3624,23.52 23.52,18.3624 23.52,12 C23.52,5.6376 18.3624,0.48 12,0.48 Z M17.04,9.2004 L16.8996,9.2004 C16.8996,9.2004 16.4796,9.2004 16.4796,9.6204 L16.4796,14.3796 C16.4796,14.3796 16.4796,14.7996 16.8996,14.7996 L17.04,14.7996 L17.04,15.9204 L13.68,15.9204 L13.68,14.7996 L14.2404,14.7996 L14.2404,9.5916 L14.184,9.5916 L12.468,15.9204 L10.956,15.9204 L9.2556,9.5916 L9.2004,9.5916 L9.2004,14.7996 L9.7596,14.7996 L9.7596,15.9204 L6.96,15.9204 L6.96,14.7996 L7.1004,14.7996 C7.1004,14.7996 7.5204,14.7996 7.5204,14.3796 L7.5204,9.6192 C7.5204,9.6192 7.5204,9.1992 7.1004,9.1992 L6.96,9.1992 L6.96,8.0796 L10.6752,8.0796 L11.9784,12.9288 L12.0216,12.9288 L13.3356,8.0808 L17.04,8.0808 L17.04,9.2004 Z" id="Shape"></path>
                </g>
            </g>
        </g>
    </g>
</svg>