<?xml version="1.0" encoding="UTF-8"?>
<svg width="24px" height="24px" viewBox="0 0 24 24" version="1.1" xmlns="http://www.w3.org/2000/svg" xmlns:xlink="http://www.w3.org/1999/xlink">
    <!-- Generator: Sketch 47.1 (45422) - http://www.bohemiancoding.com/sketch -->
    <title>Twitter</title>
    <desc>Created with Sketch.</desc>
    <defs></defs>
    <g id="Welcome" stroke="none" stroke-width="1" fill="none" fill-rule="evenodd">
        <g id="Desktop-Copy" transform="translate(-878.000000, -3149.000000)" fill-rule="nonzero" fill="#000000">
            <g id="Twitter" transform="translate(878.000000, 3149.000000)">
                <g id="Twitter_w_x2F__circle">
                    <path d="M12,0.48 C5.6376,0.48 0.48,5.6376 0.48,12 C0.48,18.3624 5.6376,23.52 12,23.52 C18.3624,23.52 23.52,18.3624 23.52,12 C23.52,5.6376 18.3624,0.48 12,0.48 Z M16.686,9.9168 C16.6908,10.0152 16.692,10.1136 16.692,10.2096 C16.692,13.2096 14.4108,16.6668 10.2372,16.6668 C9.00395259,16.6688506 7.79635974,16.3146567 6.7596,15.6468 C6.936,15.6684 7.1172,15.6768 7.3008,15.6768 C8.364,15.6768 9.342,15.3156 10.1184,14.706 C9.14849191,14.686952 8.2974644,14.054705 7.9992,13.1316 C8.33898692,13.1962108 8.68902038,13.182669 9.0228,13.092 C7.96400008,12.8778951 7.20266528,11.9474306 7.2024,10.8672 L7.2024,10.8396 C7.5084,11.0088 7.8588,11.112 8.2308,11.124 C7.23135847,10.4586887 6.92358441,9.12973613 7.5288,8.0928 C8.68140343,9.51002963 10.3808155,10.372164 12.2052,10.4652 C11.9693728,9.46418605 12.4362301,8.42972373 13.3428854,7.94431705 C14.2495406,7.45891037 15.3692882,7.64393341 16.0716,8.3952 C16.579403,8.29473119 17.0663727,8.10846526 17.5116,7.8444 C17.3423542,8.3701612 16.9880089,8.81661071 16.5144,9.1008 C16.9642159,9.04662237 17.4034427,8.92569343 17.8176,8.742 C17.5133834,9.19787379 17.1301618,9.59572528 16.686,9.9168 L16.686,9.9168 Z" id="Shape"></path>
                </g>
            </g>
        </g>
    </g>
</svg>